<svg width="20" height="39" viewBox="0 0 20 39" fill="none" xmlns="http://www.w3.org/2000/svg">
<path d="M14.6864 38.5456C14.9997 38.5961 21.7204 25.5712 13.8479 14.5581C13.6986 14.3528 13.7379 14.0646 13.9246 13.8953C15.4495 12.489 21.6396 6.3802 19.2121 2.26198C18.487 1.02136 17.065 0.3324 15.6309 0.402816C13.439 0.518861 10.3721 2.01438 11.4548 9.93563C11.4861 10.1537 11.2468 10.319 11.0732 10.1982C9.48055 9.09203 4.26183 5.88609 1.66364 9.33093C0.465039 10.9234 0.569468 13.1743 1.7871 14.6891C3.184 16.4277 5.95002 17.8429 11.1537 14.5502C11.374 14.4158 11.5676 14.5489 11.7713 14.6882C13.3339 15.7759 18.6904 26.9617 13.5467 37.8455L14.6964 38.5518L14.6864 38.5456Z" fill="#F06838"/>
</svg>
