<svg width="114" height="111" viewBox="0 0 114 111" fill="none" xmlns="http://www.w3.org/2000/svg">
<g clip-path="url(#clip0_32_399)">
<path d="M104.04 57.06C104.04 86.39 80.75 110.16 52.02 110.16C23.29 110.16 0 86.39 0 57.06C0 29.91 19.96 7.52001 45.72 4.35001C47.78 4.10001 49.89 3.96001 52.02 3.96001C80.75 3.96001 104.04 27.73 104.04 57.06Z" fill="#349552"/>
<mask id="mask0_32_399" style="mask-type:luminance" maskUnits="userSpaceOnUse" x="0" y="3" width="105" height="108">
<path d="M104.04 57.06C104.04 86.39 80.75 110.16 52.02 110.16C23.29 110.16 0 86.39 0 57.06C0 29.91 19.96 7.52001 45.72 4.35001C47.78 4.10001 49.89 3.96001 52.02 3.96001C80.75 3.96001 104.04 27.73 104.04 57.06Z" fill="white"/>
</mask>
<g mask="url(#mask0_32_399)">
<path d="M45 5.04L52.2 56.16L99.72 79.56L113.4 50.76L99 19.8L82.8 5.04L67.32 0H45V5.04Z" fill="#266433"/>
</g>
</g>
<defs>
<clipPath id="clip0_32_399">
<rect width="113.4" height="110.16" fill="white"/>
</clipPath>
</defs>
</svg>
