<svg width="157" height="215" viewBox="0 0 157 215" fill="none" xmlns="http://www.w3.org/2000/svg">
<g clip-path="url(#clip0_16_78)">
<path d="M136.558 116.346C137.472 119.939 143.874 148.938 117.062 162.118C116.915 162.187 116.801 162.325 116.746 162.501L105.896 200.132C105.874 200.205 105.866 200.278 105.873 200.363L106.356 206.382C106.386 206.752 106.091 207.062 105.729 207.062L85.3007 206.426C85.0222 206.42 84.7841 206.224 84.7198 205.943C83.9335 202.383 78.9886 179.41 80.2406 165.576C80.2788 165.187 79.9752 164.867 79.5885 164.898L67.5314 165.867C67.338 165.882 67.1527 165.997 67.0559 166.177L44.325 206.624C44.2156 206.819 44.0164 206.935 43.8081 206.937L22.7136 207.185C22.2142 207.197 21.9164 206.605 22.217 206.194L24.4043 203.14C24.4665 203.049 24.501 202.961 24.5207 202.859L30.0319 160.888C30.0678 160.642 29.9494 160.379 29.7308 160.254C26.2862 158.21 -0.88626 140.76 13.3458 105.779C13.3458 105.779 34.9926 47.161 70.3485 45.0087C105.705 42.8564 117.472 74.1027 128.897 97.6293C129.114 98.0845 129.726 98.0926 129.969 97.6578C131.724 94.4094 137.243 83.8562 141.131 72.2168C141.838 70.1123 144.666 70.014 145.511 72.0654C146.221 73.7985 146.686 76.8256 146.422 82.0163C145.655 97.0423 145.683 107.952 136.772 115.727C136.604 115.884 136.512 116.121 136.572 116.345L136.558 116.346Z" fill="#349552"/>
<path d="M86.239 100.769C86.239 100.769 79.7957 120.232 66.6194 104.149" stroke="#231F20" stroke-miterlimit="10" stroke-linecap="round"/>
<path d="M64.7942 53.3881C64.7942 53.3881 57.9198 45.8494 49.6398 53.0014" stroke="#231F20" stroke-miterlimit="10" stroke-linecap="round"/>
<path d="M96.1813 50.4519C96.1813 50.4519 88.9211 43.3022 81.039 50.9091" stroke="#231F20" stroke-miterlimit="10" stroke-linecap="round"/>
<path d="M25.5096 103.198C25.5096 103.198 8.3595 117.077 26.7606 143.695C26.7606 143.695 41.9101 168.769 37.4477 147.476L33.3735 129.459" stroke="#231F20" stroke-miterlimit="10" stroke-linecap="round"/>
<path d="M85.7111 94.1956C79.6929 94.679 74.4105 90.0447 73.9125 83.8447C73.4145 77.6448 77.8896 72.2268 83.9078 71.7435C89.926 71.2601 95.2084 75.8943 95.7064 82.0943C96.2044 88.2943 91.7293 93.7122 85.7111 94.1956Z" fill="#FFFEF8"/>
<path d="M63.6686 95.966C57.5131 96.4604 52.1102 91.7204 51.6008 85.379C51.0915 79.0376 55.6687 73.496 61.8242 73.0016C67.9797 72.5073 73.3826 77.2472 73.8919 83.5887C74.4013 89.9301 69.8241 95.4716 63.6686 95.966Z" fill="#FFFEF8"/>
<path d="M65.1503 90.8779C61.7026 91.1548 58.6765 88.5 58.3912 84.9482C58.1059 81.3963 60.6696 78.2925 64.1173 78.0156C67.565 77.7387 70.5912 80.3935 70.8764 83.9454C71.1617 87.4972 68.598 90.601 65.1503 90.8779Z" fill="#242F30"/>
<path d="M83.1324 89.4337C79.6847 89.7106 76.6585 87.0557 76.3733 83.5039C76.088 79.9521 78.6516 76.8483 82.0993 76.5714C85.547 76.2945 88.5732 78.9493 88.8585 82.5011C89.1437 86.053 86.5801 89.1568 83.1324 89.4337Z" fill="#242F30"/>
</g>
<defs>
<clipPath id="clip0_16_78">
<rect width="140.703" height="203.619" fill="white" transform="matrix(-0.99679 0.0800588 0.0800588 0.99679 140.252 0)"/>
</clipPath>
</defs>
</svg>
