<svg width="150" height="266" viewBox="0 0 150 266" fill="none" xmlns="http://www.w3.org/2000/svg">
<path d="M86.3298 85.1452C86.7259 85.1452 91.9198 68.1175 79.7127 56.4816C79.4779 56.2613 79.4633 55.9087 79.654 55.6589C81.1799 53.6608 87.3275 45.0808 83.4247 40.6146C82.2363 39.2482 80.2996 38.7046 78.5389 39.116C75.898 39.7184 72.5674 42.1719 75.7072 51.413C75.8099 51.7068 63.2213 46.9614 63.0746 54.9684C63.0452 56.4229 63.6468 57.848 64.7032 58.847C66.7573 60.7863 70.5573 62.2849 76.4261 57.0252C76.6609 56.8195 76.925 56.9371 77.2038 57.0693C79.3752 58.0683 88.5306 70.4241 84.7745 84.5428L86.3445 85.1599L86.3298 85.1452Z" fill="#349552"/>
<path d="M56.0613 87.966C46.4511 93.593 33.2463 104.744 22.2129 126.517C21.626 127.678 20.9657 128.809 20.2175 129.867C15.1263 137.051 -6.36829 170.96 21.2298 196.376C22.4916 196.376 23.4893 197.405 23.46 198.668L22.565 234.002C22.4916 236.867 21.9634 239.702 20.9804 242.406L19.9387 245.27C19.792 245.682 20.0708 246.123 20.5109 246.167L40.8024 247.783C41.4479 247.842 42.0788 247.562 42.475 247.048C45.248 243.493 56.076 228.404 59.4946 206.102C59.6706 204.956 60.595 204.075 61.7541 203.987L69.2808 203.428C69.2808 203.428 83.8942 245.564 94.7222 253.145H112.329C113.077 253.145 113.546 252.337 113.18 251.691C112.549 250.559 112.197 249.311 112.123 248.018L110.187 209.29C110.143 208.38 110.759 207.586 111.639 207.395C119.386 205.823 153.249 196.156 137.917 149.48C121.132 98.3531 107.34 86.967 84.5398 82.8092C83.278 82.5742 81.9722 82.486 80.681 82.486H76.3968C69.2221 82.486 62.1796 84.3519 55.9879 87.9807L56.0613 87.966Z" fill="#F06838"/>
<path d="M60.595 77.4467C60.595 77.4467 70.3666 84.058 77.2331 75.5956" stroke="#1F2322" stroke-miterlimit="10" stroke-linecap="round"/>
<path d="M98.3608 79.9003C98.3608 79.9003 106.812 74.5378 113.15 81.4135" stroke="#1F2322" stroke-miterlimit="10" stroke-linecap="round"/>
<path d="M130.845 148.055C130.845 148.055 141.409 170.534 113.15 181.641C113.15 181.641 90.8781 190.72 82.9992 161.601C82.9552 161.454 83.1606 161.337 83.2633 161.454C84.0703 162.438 86.051 164.231 90.4379 165.509C94.4287 166.67 96.9523 165.847 98.2728 165.068C98.7276 164.804 99.2998 165.112 99.2852 165.641C99.2412 167.992 99.9454 172.223 105.756 171.063" stroke="#1F2322" stroke-miterlimit="10" stroke-linecap="round"/>
<path d="M20.4522 136.155C20.4522 136.155 11.2088 156.518 54.2566 171.856C54.2566 171.856 74.8562 178.732 46.8619 154.005" stroke="#1F2322" stroke-miterlimit="10" stroke-linecap="round"/>
<path d="M68.0777 137.125C68.0777 137.125 86.9166 127.208 87.0927 149.642" stroke="#1F2322" stroke-linecap="round" stroke-linejoin="round"/>
<path d="M72.1272 143.471L73.3743 146.704C73.6971 147.541 74.4454 148.129 75.3257 148.261L77.5999 148.584" stroke="#1F2322" stroke-linecap="round" stroke-linejoin="round"/>
<path d="M92.0665 131.938C98.6058 131.938 103.907 126.63 103.907 120.082C103.907 113.534 98.6058 108.226 92.0665 108.226C85.5273 108.226 80.2262 113.534 80.2262 120.082C80.2262 126.63 85.5273 131.938 92.0665 131.938Z" fill="#FFFEF8"/>
<path d="M68.914 126.165C75.4533 126.165 80.7544 120.856 80.7544 114.308C80.7544 107.76 75.4533 102.452 68.914 102.452C62.3748 102.452 57.0737 107.76 57.0737 114.308C57.0737 120.856 62.3748 126.165 68.914 126.165Z" fill="#FFFEF8"/>
<path d="M73.0516 118.187C76.7142 118.187 79.6833 115.214 79.6833 111.546C79.6833 107.879 76.7142 104.906 73.0516 104.906C69.3889 104.906 66.4198 107.879 66.4198 111.546C66.4198 115.214 69.3889 118.187 73.0516 118.187Z" fill="#242F30"/>
<path d="M94.3994 122.83C98.062 122.83 101.031 119.856 101.031 116.189C101.031 112.521 98.062 109.548 94.3994 109.548C90.7368 109.548 87.7676 112.521 87.7676 116.189C87.7676 119.856 90.7368 122.83 94.3994 122.83Z" fill="#242F30"/>
</svg>
