<svg width="190" height="201" viewBox="0 0 190 201" fill="none" xmlns="http://www.w3.org/2000/svg">
<g clip-path="url(#clip0_22_255)">
<path d="M116.078 135.694C116.026 135.475 116.001 135.256 115.963 135.024C115.147 135.042 115.534 133.135 115.036 132.557L114.182 127.143C114.139 125.996 114.532 124.867 115.275 124.001L125.007 112.691C125.007 112.691 120.161 84.3846 111.001 70.7757C104.412 60.9883 99.7437 49.5829 88.5788 41.7409C81.1265 36.5173 72.0535 34.1297 62.9656 34.4856C57.6599 34.6898 51.3295 35.3474 47.9513 37.196C47.9513 37.196 28.9775 44.0284 16.8564 71.8987C16.2852 73.2168 15.6867 74.5346 15.0205 75.8245C12.1482 81.3365 3.51209 97.0944 1.7264 104.037C-0.271919 111.811 -0.374342 137.349 22.2808 146.594C23.364 147.042 24.1151 148.046 24.2525 149.221C25.0343 156.423 27.8741 181.501 30.6786 192.968C31.1614 194.925 31.9581 196.777 33.0558 198.453L50.0936 198.63C50.5831 198.636 50.9946 198.299 51.0947 197.822C52.2427 192.046 59.2273 157.256 62.2717 149.59C62.5089 149.005 63.0569 148.615 63.6826 148.608L69.0692 148.473C69.4909 148.463 69.8412 148.781 69.8775 149.205C70.243 154.6 72.7137 187.7 78.5204 196.865C78.855 197.387 79.4228 197.707 80.0483 197.713L95.8487 197.878C96.6374 197.886 97.3232 197.32 97.4537 196.543C98.6407 189.635 104.175 158.256 108.039 147.677C108.641 146.045 109.54 144.553 110.682 143.254C112.237 141.482 114.78 138.943 116.687 138.635L116.303 136.324C116.223 136.118 116.158 135.899 116.105 135.694L116.078 135.694Z" fill="#349552"/>
<path d="M52.9171 38.2987L43.1946 15.9889C43.0087 15.5638 43.0819 15.0596 43.3983 14.7079C44.8155 13.1256 48.6186 8.3467 47.4416 3.82993C46.8135 1.46193 44.3961 -0.160266 42.0763 0.607311C40.2204 1.22956 38.3627 3.326 38.3821 9.30494C38.3821 9.30494 32.7379 6.74827 29.906 9.68088C27.7613 11.9108 28.4962 15.7815 31.2837 17.1209C33.0563 17.9719 35.868 18.2878 40.3557 16.9832C40.574 16.9172 40.8177 17.0153 40.9244 17.2211L51.136 38.2665L51.7733 39.7474L52.9309 38.2852L52.9171 38.2987Z" fill="#F06838"/>
<path d="M125.479 122.264C125.479 122.264 129.687 141.309 125.259 143.392C125.204 143.419 125.15 143.446 125.095 143.472C121.57 145.06 117.472 142.929 116.572 139.166C115.673 135.403 114.281 129.382 113.066 123.295C111.05 113.119 118.338 118.436 118.338 118.436L125.479 122.278L125.479 122.264Z" fill="#111615"/>
<path d="M120.949 92.3371L106.688 94.4547C105.313 94.6588 104.254 95.7398 104.063 97.1165C103.401 101.942 102.751 113.428 109.281 123.666C109.468 123.968 109.82 124.122 110.174 124.084L127.358 122.024C127.916 121.962 128.486 122.036 129.001 122.287C132.181 123.767 144.62 129.37 156.477 132.155C157.657 132.427 158.725 133.025 159.573 133.894C162.21 136.61 168.551 141.454 169.854 127.38C171.385 110.893 161.733 77.8691 154.395 68.1967C152.718 65.9816 149.333 65.9055 147.651 68.1129C147.182 68.736 146.725 69.5366 146.333 70.5699C146.165 71.0186 145.903 71.4117 145.546 71.7083C142.584 74.0799 130.082 86.2896 124.623 90.7373C123.567 91.5999 122.297 92.1464 120.962 92.3373L120.949 92.3371Z" fill="#F06838"/>
<mask id="mask0_22_255" style="mask-type:luminance" maskUnits="userSpaceOnUse" x="103" y="66" width="68" height="71">
<path d="M120.949 92.3371L106.688 94.4547C105.313 94.6588 104.254 95.7398 104.063 97.1165C103.401 101.942 102.751 113.428 109.281 123.666C109.468 123.968 109.82 124.122 110.174 124.084L127.358 122.024C127.916 121.962 128.486 122.036 129.001 122.287C132.181 123.767 144.62 129.37 156.477 132.155C157.657 132.427 158.725 133.025 159.573 133.894C162.21 136.61 168.551 141.454 169.854 127.38C171.385 110.893 161.733 77.8691 154.395 68.1967C152.718 65.9816 149.333 65.9055 147.651 68.1129C147.182 68.736 146.725 69.5366 146.333 70.5699C146.165 71.0186 145.903 71.4117 145.546 71.7083C142.584 74.0799 130.082 86.2896 124.623 90.7373C123.567 91.5999 122.297 92.1464 120.962 92.3373L120.949 92.3371Z" fill="white"/>
</mask>
<g mask="url(#mask0_22_255)">
<path d="M146.366 70.0379C146.366 70.0379 144.757 121.414 164.054 138.431C164.054 138.431 173.367 143.906 170.253 117.734C167.139 91.5617 164.095 74.3719 154.567 66.0009C154.567 66.0009 147.857 61.3719 146.352 70.0514L146.366 70.0379Z" fill="#349552"/>
</g>
<path d="M64.8127 55.6215L80.0657 63.9702" stroke="#231F20" stroke-miterlimit="10" stroke-linecap="round"/>
<path d="M100.384 55.9915L90.1823 64.0754" stroke="#231F20" stroke-miterlimit="10" stroke-linecap="round"/>
<path d="M64.6288 73.3101C64.6288 73.3101 69.1669 76.3057 81.9079 75.1278" stroke="#231F20" stroke-miterlimit="10" stroke-linecap="round"/>
<path d="M90.0392 77.8332L104.398 77.9826" stroke="#231F20" stroke-miterlimit="10" stroke-linecap="round"/>
<path d="M20.6638 95.4574L20.2652 133.783C20.2652 133.783 19.1866 143.34 26.3383 142.172C28.6541 141.787 30.3212 139.716 30.3456 137.368L30.4361 128.66" stroke="#231F20" stroke-miterlimit="10" stroke-linecap="round"/>
<path d="M173.369 67.889L168.361 78.6478" stroke="#231F20" stroke-miterlimit="10" stroke-linecap="round"/>
<path d="M170.68 91.121L178.37 89.2352" stroke="#231F20" stroke-miterlimit="10" stroke-linecap="round"/>
<path d="M178.192 106.269L187.309 108.329" stroke="#231F20" stroke-miterlimit="10" stroke-linecap="round"/>
<path d="M98.1139 108.896C98.5715 98.9263 93.4143 90.5886 86.5948 90.2738C79.7753 89.9589 73.876 97.7861 73.4183 107.756C72.9606 117.726 78.1179 126.064 84.9374 126.379C91.7569 126.694 97.6562 118.867 98.1139 108.896Z" fill="#E2DC54"/>
<path d="M96.022 108.8C96.4022 100.517 92.1188 93.5895 86.4546 93.328C80.7905 93.0665 75.8905 99.5695 75.5103 107.853C75.13 116.136 79.4135 123.063 85.0776 123.325C90.7418 123.586 95.6418 117.083 96.022 108.8Z" fill="#BEE0C7"/>
<path d="M149.455 92.0467C149.455 92.0467 150.341 101.065 153.823 111.421C153.823 111.421 160.697 109.526 159.159 100.501C157.621 91.4764 149.455 92.0467 149.455 92.0467Z" fill="#111615"/>
<path d="M118.322 96.4731C118.322 96.4731 117.649 114.075 122.729 119.901" stroke="#231F20" stroke-miterlimit="10" stroke-linecap="round"/>
<path d="M115.553 135.183C115.553 135.183 125.034 125.781 127.205 128.834C127.929 129.852 128.393 130.99 128.682 132.044C129.402 134.658 127.892 137.359 125.274 138.042C123.392 138.541 120.627 138.921 116.575 138.879C105.398 138.763 115.515 138.868 115.515 138.868L114.569 135.664L115.553 135.183Z" fill="#349552"/>
</g>
<defs>
<clipPath id="clip0_22_255">
<rect width="187.045" height="198.12" fill="white" transform="translate(2.06042) rotate(0.595888)"/>
</clipPath>
</defs>
</svg>
