<svg width="172" height="235" viewBox="0 0 172 235" fill="none" xmlns="http://www.w3.org/2000/svg">
<g clip-path="url(#clip0_32_350)">
<path d="M150.028 127.873C151.026 131.795 158.015 163.451 128.747 177.838C128.586 177.914 128.462 178.064 128.401 178.257L116.557 219.335C116.533 219.416 116.524 219.494 116.532 219.588L117.059 226.158C117.092 226.561 116.77 226.9 116.376 226.9L94.0752 226.206C93.7711 226.199 93.5112 225.985 93.441 225.678C92.5827 221.792 87.1847 196.715 88.5514 181.614C88.5931 181.188 88.2617 180.84 87.8395 180.874L74.6778 181.931C74.4667 181.948 74.2644 182.073 74.1587 182.269L49.3452 226.422C49.2258 226.635 49.0084 226.762 48.781 226.764L25.7538 227.035C25.2086 227.047 24.8836 226.401 25.2117 225.953L27.5994 222.619C27.6673 222.52 27.705 222.423 27.7264 222.312L33.7426 176.496C33.7817 176.227 33.6525 175.94 33.4139 175.803C29.6537 173.573 -0.00827701 154.524 15.5277 116.337C15.5277 116.337 39.1577 52.3493 77.753 49.9997C116.348 47.6502 129.194 81.7593 141.665 107.441C141.903 107.938 142.571 107.947 142.836 107.472C144.752 103.926 150.776 92.4064 155.021 79.7006C155.792 77.4033 158.879 77.296 159.802 79.5354C160.576 81.4272 161.085 84.7317 160.796 90.398C159.959 106.801 159.99 118.71 150.262 127.198C150.079 127.369 149.978 127.627 150.043 127.872L150.028 127.873Z" fill="#F06838"/>
<path d="M71.69 59.1468C71.69 59.1468 64.1857 50.9175 55.1471 58.7247" stroke="#231F20" stroke-miterlimit="10" stroke-linecap="round"/>
<path d="M105.953 55.9417C105.953 55.9417 98.0273 48.1369 89.4231 56.4408" stroke="#231F20" stroke-miterlimit="10" stroke-linecap="round"/>
<path d="M28.8061 113.52C28.8061 113.52 10.0847 128.671 30.1716 157.727C30.1716 157.727 46.7092 185.099 41.8379 161.855L37.3904 142.188" stroke="#231F20" stroke-miterlimit="10" stroke-linecap="round"/>
<path d="M80.8723 50.2963C80.4829 50.1713 80.3781 31.2962 95.8617 23.2527C96.1533 23.1043 96.2766 22.7504 96.1612 22.4471C95.2317 19.9424 91.6924 9.31556 96.8892 6.00626C98.4476 5.0057 100.484 5.04535 102.09 5.96369C104.541 7.37699 107.189 10.8847 101.314 19.3445C101.15 19.5765 101.329 19.9061 101.599 19.8688C104.075 19.5292 111.945 18.8971 112.916 24.3685C113.361 26.8964 111.925 29.419 109.641 30.4466C107.019 31.6264 103.014 31.6354 98.9614 24.8171C98.7869 24.5341 98.4867 24.5738 98.1713 24.6148C95.7401 24.9507 83.0458 34.6617 82.591 50.1583L80.8572 50.2975L80.8723 50.2963Z" fill="#349552"/>
<g clip-path="url(#clip1_32_350)">
<path d="M93.0777 102.367C100.133 102.367 105.853 96.6971 105.853 89.7034C105.853 82.7097 100.133 77.0401 93.0777 77.0401C86.0221 77.0401 80.3024 82.7097 80.3024 89.7034C80.3024 96.6971 86.0221 102.367 93.0777 102.367Z" fill="#EDF2F1"/>
<path d="M67.4302 102.367C74.4859 102.367 80.2056 96.6971 80.2056 89.7034C80.2056 82.7097 74.4859 77.0401 67.4302 77.0401C60.3746 77.0401 54.6549 82.7097 54.6549 89.7034C54.6549 96.6971 60.3746 102.367 67.4302 102.367Z" fill="#EDF2F1"/>
<path d="M71.4144 93.6207C75.4055 93.6207 78.6409 90.4137 78.6409 86.4576C78.6409 82.5016 75.4055 79.2946 71.4144 79.2946C67.4234 79.2946 64.188 82.5016 64.188 86.4576C64.188 90.4137 67.4234 93.6207 71.4144 93.6207Z" fill="#111615"/>
<path d="M96.578 92.8532C100.569 92.8532 103.804 89.6462 103.804 85.6902C103.804 81.7341 100.569 78.5271 96.578 78.5271C92.587 78.5271 89.3516 81.7341 89.3516 85.6902C89.3516 89.6462 92.587 92.8532 96.578 92.8532Z" fill="#111615"/>
<path d="M80.2055 127.006C86.5752 127.006 91.7388 121.887 91.7388 115.573C91.7388 109.26 86.5752 104.141 80.2055 104.141C73.8359 104.141 68.6722 109.26 68.6722 115.573C68.6722 121.887 73.8359 127.006 80.2055 127.006Z" fill="#EDF2F1"/>
<path d="M80.254 123.243C84.7368 123.243 88.3708 119.609 88.3708 115.127C88.3708 110.644 84.7368 107.01 80.254 107.01C75.7712 107.01 72.1372 110.644 72.1372 115.127C72.1372 119.609 75.7712 123.243 80.254 123.243Z" fill="#21A38A"/>
</g>
</g>
<defs>
<clipPath id="clip0_32_350">
<rect width="153.594" height="222.275" fill="white" transform="matrix(-0.99679 0.0800588 0.0800588 0.99679 154.061 0.867325)"/>
</clipPath>
<clipPath id="clip1_32_350">
<rect width="51.1981" height="49.9494" fill="white" transform="translate(54.6549 77.0401)"/>
</clipPath>
</defs>
</svg>
