<svg width="93" height="103" viewBox="0 0 93 103" fill="none" xmlns="http://www.w3.org/2000/svg">
<g clip-path="url(#clip0_73_257)">
<path d="M61.7914 18.0634C61.7914 18.0634 64.9207 9.96442 72.1787 9.81444C72.4309 9.81444 72.6551 9.97379 72.7392 10.2081C73.1969 11.483 74.8409 15.4856 77.7834 15.9824C79.6703 16.3011 81.5198 14.7732 81.5198 12.8516C81.5198 11.4455 80.5203 9.8613 76.4756 9.13952C76.4756 9.13952 81.1088 4.68693 79.2873 1.53731C78.7361 0.590553 77.6806 0.0749906 76.5877 0.00937356C74.6354 -0.103113 71.5809 0.721787 72.6925 7.36786C72.6925 7.36786 61.8101 10.5925 60.7358 17.7166C59.6616 24.8407 61.7914 18.0728 61.7914 18.0728V18.0634Z" fill="#F06838"/>
<path d="M44.5011 17.3791C44.5011 17.3791 27.8646 19.5164 17.2344 41.6387C15.7399 44.7508 14.1145 47.7973 12.2743 50.7126C9.23846 55.5308 4.88551 64.7734 6.62295 76.2283C6.79109 77.3437 6.03446 78.4124 4.91353 78.5436C1.98042 78.8717 -2.4566 80.9995 1.68151 91.8545C1.68151 91.8545 3.94206 100.713 12.5826 99.5036C13.498 99.3723 14.4228 99.3161 15.3475 99.3536C18.3834 99.4754 25.1931 99.5692 29.3966 98.3412C30.6856 97.9662 32.0494 98.4349 32.8528 99.5129C34.1792 101.266 36.2809 103.431 38.3266 102.925C39.2701 102.691 40.2136 102.503 41.185 102.55C49.5547 103 83.9766 103.366 92.0286 79.6966C92.0286 79.6966 98.5768 68.2511 77.634 31.5618C74.6449 26.3218 70.2172 21.9817 64.8087 19.3289C59.7271 16.8448 52.9081 15.3075 44.5011 17.3698V17.3791Z" fill="#E2DC54"/>
<path d="M39.4849 57.9867C39.4849 57.9867 42.2592 57.6493 43.7724 54.1059" stroke="#231F20" stroke-miterlimit="10" stroke-linecap="round"/>
<path d="M23.4275 55.7932H39.4848L41.6707 79.0779L25.277 79.9216L23.4275 55.7932Z" fill="#DDD6EA"/>
<path d="M11.1533 60.5177L35.1973 73.3411C35.1973 73.3411 37.5139 76.4439 33.1423 75.6377C31.0405 75.2534 28.9294 74.944 26.7997 74.8409L9.90161 74.0254" fill="#E2DC54"/>
<path d="M87.825 61.6988C87.825 61.6988 89.8427 75.872 58.5687 71.8225C58.5687 71.8225 46.4626 69.4603 62.9403 65.0734L70.3385 63.3861" stroke="black" stroke-miterlimit="10" stroke-linecap="round"/>
<path d="M45.79 78.2343C45.79 78.2343 79.446 75.0096 82.6313 92.7356" stroke="black" stroke-miterlimit="10" stroke-linecap="round"/>
<path d="M11.994 96.1196C11.994 96.1196 15.3568 85.4896 7.11792 79.9216" stroke="black" stroke-miterlimit="10" stroke-linecap="round"/>
<path d="M29.6487 88.0206C29.6487 88.0206 29.1442 79.7528 34.6929 81.6088C40.2415 83.4649 43.7724 93.5886 42.2591 98.8193" stroke="black" stroke-miterlimit="10" stroke-linecap="round"/>
<path d="M28.4717 21.5411C28.4717 21.5411 33.0115 17.8291 38.0557 21.5411" stroke="black" stroke-miterlimit="10" stroke-linecap="round"/>
<path d="M9.89233 77.2219L18.0471 75.0284" stroke="black" stroke-miterlimit="10" stroke-linecap="round"/>
<path d="M11.1533 58.8304C11.1533 58.8304 18.0471 60.9114 22.0824 67.1262" stroke="black" stroke-miterlimit="10" stroke-linecap="round"/>
<path d="M45.79 24.9157C45.79 24.9157 52.6838 21.5411 56.2147 27.7841" stroke="black" stroke-miterlimit="10" stroke-linecap="round"/>
<path d="M47.677 47.788C51.8815 47.788 55.29 44.3675 55.29 40.1483C55.29 35.929 51.8815 32.5086 47.677 32.5086C43.4724 32.5086 40.064 35.929 40.064 40.1483C40.064 44.3675 43.4724 47.788 47.677 47.788Z" fill="#F3F2F4"/>
<path d="M31.8718 47.788C36.0763 47.788 39.4848 44.3675 39.4848 40.1483C39.4848 35.929 36.0763 32.5086 31.8718 32.5086C27.6672 32.5086 24.2588 35.929 24.2588 40.1483C24.2588 44.3675 27.6672 47.788 31.8718 47.788Z" fill="#F3F2F4"/>
<path d="M45.706 46.6818C47.9347 46.6818 49.7414 44.8688 49.7414 42.6323C49.7414 40.3958 47.9347 38.5828 45.706 38.5828C43.4773 38.5828 41.6707 40.3958 41.6707 42.6323C41.6707 44.8688 43.4773 46.6818 45.706 46.6818Z" fill="#020202"/>
<path d="M30.5734 46.6818C32.8021 46.6818 34.6088 44.8688 34.6088 42.6323C34.6088 40.3958 32.8021 38.5828 30.5734 38.5828C28.3448 38.5828 26.5381 40.3958 26.5381 42.6323C26.5381 44.8688 28.3448 46.6818 30.5734 46.6818Z" fill="#020202"/>
</g>
<defs>
<clipPath id="clip0_73_257">
<rect width="93" height="103" fill="white"/>
</clipPath>
</defs>
</svg>
