<svg width="155" height="67" viewBox="0 0 155 67" fill="none" xmlns="http://www.w3.org/2000/svg">
<g filter="url(#filter0_i_45_555)">
<path d="M31.8335 32.144C32.2602 32.144 32.4735 33.808 32.4735 37.136C32.4735 40.3787 32.2602 42 31.8335 42H27.1615C26.6922 46.736 24.9855 50.4267 22.0415 53.072C19.1402 55.76 15.3215 57.104 10.5855 57.104H1.56149L0.793494 47.376H11.6735C13.6788 47.376 15.2362 46.8853 16.3455 45.904C17.4975 44.9653 18.0735 43.664 18.0735 42H14.4895C9.75349 42 6.36149 41.0187 4.31349 39.056C2.30816 37.0507 1.30549 33.872 1.30549 29.52C1.30549 26.7893 1.83883 24.3573 2.90549 22.224C4.01483 20.048 5.55083 18.3627 7.51349 17.168C9.51883 15.9307 11.8015 15.312 14.3615 15.312C18.4148 15.312 21.5935 16.6133 23.8975 19.216C26.2015 21.776 27.3535 25.36 27.3535 29.968V32.144H31.8335ZM10.5215 29.072C10.5215 30.3093 10.8202 31.2053 11.4175 31.76C12.0575 32.272 13.1455 32.528 14.6815 32.528H18.2015V29.584C18.2015 27.92 17.8388 26.6613 17.1135 25.808C16.4308 24.9547 15.4495 24.528 14.1695 24.528C12.9748 24.528 12.0575 24.9547 11.4175 25.808C10.8202 26.6187 10.5215 27.7067 10.5215 29.072ZM37.3415 32.144C38.2375 32.144 38.9415 31.9307 39.4535 31.504C39.9655 31.0347 40.2215 30.3947 40.2215 29.584V19.344H49.6295V29.392C49.6295 31.2267 50.5895 32.144 52.5095 32.144H54.5575C54.9842 32.144 55.1975 33.7867 55.1975 37.072C55.1975 40.3573 54.9842 42 54.5575 42H52.0615C48.5628 42 46.1522 41.0613 44.8295 39.184C44.0188 40.1653 43.0162 40.8907 41.8215 41.36C40.6268 41.7867 39.1335 42 37.3415 42H30.5575C30.1308 42 29.9175 40.3787 29.9175 37.136C29.9175 33.808 30.1308 32.144 30.5575 32.144H37.3415ZM39.4535 13.584V5.648H49.3095V13.584H39.4535ZM60.0615 32.144C60.9575 32.144 61.6615 31.9307 62.1735 31.504C62.6855 31.0347 62.9415 30.3947 62.9415 29.584V19.344H72.3495V29.392C72.3495 31.2267 73.3095 32.144 75.2295 32.144H77.2775C77.7042 32.144 77.9175 33.7867 77.9175 37.072C77.9175 40.3573 77.7042 42 77.2775 42H74.7815C71.2828 42 68.8722 41.0613 67.5495 39.184C66.7388 40.1653 65.7362 40.8907 64.5415 41.36C63.3468 41.7867 61.8535 42 60.0615 42H53.2775C52.8508 42 52.6375 40.3787 52.6375 37.136C52.6375 33.808 52.8508 32.144 53.2775 32.144H60.0615ZM66.7175 47.824V55.76H48.2855V47.824H66.7175ZM78.3655 32.144C79.2188 32.144 79.9015 31.9093 80.4135 31.44C80.9255 30.9707 81.1815 30.3093 81.1815 29.456V0.848H90.6535V30.032C90.6535 33.7867 89.5655 36.7307 87.3895 38.864C85.2562 40.9547 82.3335 42 78.6215 42H75.9975C75.5708 42 75.3575 40.3787 75.3575 37.136C75.3575 33.808 75.5708 32.144 75.9975 32.144H78.3655ZM128.088 32.144C128.515 32.144 128.728 33.808 128.728 37.136C128.728 40.3787 128.515 42 128.088 42H123.416C122.947 46.736 121.24 50.4267 118.296 53.072C115.395 55.76 111.576 57.104 106.84 57.104H97.8165L97.0485 47.376H107.928C109.934 47.376 111.491 46.8853 112.6 45.904C113.752 44.9653 114.328 43.664 114.328 42H110.744C106.008 42 102.616 41.0187 100.568 39.056C98.5632 37.0507 97.5605 33.872 97.5605 29.52C97.5605 26.7893 98.0938 24.3573 99.1605 22.224C100.27 20.048 101.806 18.3627 103.768 17.168C105.774 15.9307 108.056 15.312 110.616 15.312C114.67 15.312 117.848 16.6133 120.152 19.216C122.456 21.776 123.608 25.36 123.608 29.968V32.144H128.088ZM106.776 29.072C106.776 30.3093 107.075 31.2053 107.672 31.76C108.312 32.272 109.4 32.528 110.936 32.528H114.456V29.584C114.456 27.92 114.094 26.6613 113.368 25.808C112.686 24.9547 111.704 24.528 110.424 24.528C109.23 24.528 108.312 24.9547 107.672 25.808C107.075 26.6187 106.776 27.7067 106.776 29.072ZM142.173 32.144C142.983 32.144 143.645 31.9093 144.157 31.44C144.711 30.9707 144.989 30.352 144.989 29.584V19.344H154.269V30.032C154.269 33.744 153.159 36.6667 150.941 38.8C148.765 40.9333 145.821 42 142.109 42H126.812C126.386 42 126.172 40.3787 126.172 37.136C126.172 33.808 126.386 32.144 126.812 32.144H142.173ZM145.117 47.824V55.76H126.684V47.824H145.117ZM131.869 66.128V58.448H139.933V66.128H131.869Z" fill="#266433"/>
</g>
<defs>
<filter id="filter0_i_45_555" x="0.793457" y="0.848" width="153.475" height="69.28" filterUnits="userSpaceOnUse" color-interpolation-filters="sRGB">
<feFlood flood-opacity="0" result="BackgroundImageFix"/>
<feBlend mode="normal" in="SourceGraphic" in2="BackgroundImageFix" result="shape"/>
<feColorMatrix in="SourceAlpha" type="matrix" values="0 0 0 0 0 0 0 0 0 0 0 0 0 0 0 0 0 0 127 0" result="hardAlpha"/>
<feOffset dy="4"/>
<feGaussianBlur stdDeviation="2"/>
<feComposite in2="hardAlpha" operator="arithmetic" k2="-1" k3="1"/>
<feColorMatrix type="matrix" values="0 0 0 0 0 0 0 0 0 0 0 0 0 0 0 0 0 0 0.25 0"/>
<feBlend mode="normal" in2="shape" result="effect1_innerShadow_45_555"/>
</filter>
</defs>
</svg>
